<?xml version="1.0" encoding="utf-8"?>
<!DOCTYPE svg PUBLIC "-//W3C//DTD SVG 1.1//EN" "http://www.w3.org/Graphics/SVG/1.1/DTD/svg11.dtd">
<svg version="1.1" id="Ebene_1" xmlns="http://www.w3.org/2000/svg" xmlns:xlink="http://www.w3.org/1999/xlink" x="0px" y="0px"
	 width="51.937px" height="65.131px" viewBox="0 0 51.937 65.131" enable-background="new 0 0 51.937 65.131" xml:space="preserve">
<g>
	<defs>
		<rect id="SVGID_1_" x="0.312" y="0.496" width="51.312" height="64.14"/>
	</defs>
	<clipPath id="SVGID_2_">
		<use xlink:href="#SVGID_1_"  overflow="visible"/>
	</clipPath>
	<path clip-path="url(#SVGID_2_)" fill="#FFFFFF" d="M51.624,32.609c0-10.123-1.134-18.413-7.854-25.132
		c-4.711-4.713-11.17-6.981-17.801-6.981c-6.632,0-13.09,2.269-17.802,6.981c-6.719,6.719-7.854,15.009-7.854,25.132
		s1.135,18.326,7.854,25.045c4.712,4.712,11.17,6.981,17.802,6.981c3.59,0,7.096-0.66,10.374-2.016l-6.902-8.679
		c-1.15,0.318-2.34,0.484-3.471,0.484c-3.578,0-7.33-1.483-9.774-4.102c-4.275-4.45-4.45-12.043-4.45-17.715
		s0.175-13.352,4.45-17.802c2.444-2.618,6.196-4.103,9.774-4.103c3.579,0,7.331,1.484,9.774,4.103
		c4.275,4.45,4.45,12.13,4.45,17.802c0,4.945-0.187,11.376-3.042,15.902l6.974,8.767C50.509,50.615,51.624,42.59,51.624,32.609"/>
</g>
</svg>
